<svg width="15" height="16" viewBox="0 0 15 16" fill="none" xmlns="http://www.w3.org/2000/svg">
<g clip-path="url(#clip0_6_30)">
<mask id="mask0_6_30" style="mask-type:luminance" maskUnits="userSpaceOnUse" x="0" y="1" width="15" height="15">
<path d="M13.9064 6.91247H7.50012V9.56872H11.1876C10.8439 11.2562 9.40637 12.225 7.50012 12.225C5.25012 12.225 3.43762 10.4125 3.43762 8.16247C3.43762 5.91247 5.25012 4.09997 7.50012 4.09997C8.46887 4.09997 9.34387 4.44372 10.0314 5.00622L12.0314 3.00622C11.0413 2.12789 9.81819 1.55489 8.50965 1.35638C7.20111 1.15788 5.86309 1.34235 4.65708 1.88753C3.45107 2.43271 2.42863 3.3153 1.71317 4.42876C0.997718 5.54223 0.619828 6.83897 0.625116 8.16247C0.625116 11.975 3.68762 15.0375 7.50012 15.0375C10.9376 15.0375 14.0626 12.5375 14.0626 8.16247C14.0626 7.75622 14.0001 7.31872 13.9064 6.91247Z" fill="white"/>
</mask>
<g mask="url(#mask0_6_30)">
<path d="M0.00012207 12.225V4.09998L5.31262 8.16248L0.00012207 12.225Z" fill="#FBBC05"/>
</g>
<mask id="mask1_6_30" style="mask-type:luminance" maskUnits="userSpaceOnUse" x="0" y="1" width="15" height="15">
<path d="M13.9064 6.91247H7.50012V9.56872H11.1876C10.8439 11.2562 9.40637 12.225 7.50012 12.225C5.25012 12.225 3.43762 10.4125 3.43762 8.16247C3.43762 5.91247 5.25012 4.09997 7.50012 4.09997C8.46887 4.09997 9.34387 4.44372 10.0314 5.00622L12.0314 3.00622C11.0413 2.12789 9.81819 1.55489 8.50965 1.35638C7.20111 1.15788 5.86309 1.34235 4.65708 1.88753C3.45107 2.43271 2.42863 3.3153 1.71317 4.42876C0.997718 5.54223 0.619828 6.83897 0.625116 8.16247C0.625116 11.975 3.68762 15.0375 7.50012 15.0375C10.9376 15.0375 14.0626 12.5375 14.0626 8.16247C14.0626 7.75622 14.0001 7.31872 13.9064 6.91247Z" fill="white"/>
</mask>
<g mask="url(#mask1_6_30)">
<path d="M0.00012207 4.09998L5.31262 8.16248L7.50012 6.25623L15.0001 5.03748V0.662476H0.00012207V4.09998Z" fill="#EA4335"/>
</g>
<mask id="mask2_6_30" style="mask-type:luminance" maskUnits="userSpaceOnUse" x="0" y="1" width="15" height="15">
<path d="M13.9064 6.91247H7.50012V9.56872H11.1876C10.8439 11.2562 9.40637 12.225 7.50012 12.225C5.25012 12.225 3.43762 10.4125 3.43762 8.16247C3.43762 5.91247 5.25012 4.09997 7.50012 4.09997C8.46887 4.09997 9.34387 4.44372 10.0314 5.00622L12.0314 3.00622C11.0413 2.12789 9.81819 1.55489 8.50965 1.35638C7.20111 1.15788 5.86309 1.34235 4.65708 1.88753C3.45107 2.43271 2.42863 3.3153 1.71317 4.42876C0.997718 5.54223 0.619828 6.83897 0.625116 8.16247C0.625116 11.975 3.68762 15.0375 7.50012 15.0375C10.9376 15.0375 14.0626 12.5375 14.0626 8.16247C14.0626 7.75622 14.0001 7.31872 13.9064 6.91247Z" fill="white"/>
</mask>
<g mask="url(#mask2_6_30)">
<path d="M0.00012207 12.225L9.37512 5.03748L11.8439 5.34998L15.0001 0.662476V15.6625H0.00012207V12.225Z" fill="#34A853"/>
</g>
<mask id="mask3_6_30" style="mask-type:luminance" maskUnits="userSpaceOnUse" x="0" y="1" width="15" height="15">
<path d="M13.9064 6.91247H7.50012V9.56872H11.1876C10.8439 11.2562 9.40637 12.225 7.50012 12.225C5.25012 12.225 3.43762 10.4125 3.43762 8.16247C3.43762 5.91247 5.25012 4.09997 7.50012 4.09997C8.46887 4.09997 9.34387 4.44372 10.0314 5.00622L12.0314 3.00622C11.0413 2.12789 9.81819 1.55489 8.50965 1.35638C7.20111 1.15788 5.86309 1.34235 4.65708 1.88753C3.45107 2.43271 2.42863 3.3153 1.71317 4.42876C0.997718 5.54223 0.619828 6.83897 0.625116 8.16247C0.625116 11.975 3.68762 15.0375 7.50012 15.0375C10.9376 15.0375 14.0626 12.5375 14.0626 8.16247C14.0626 7.75622 14.0001 7.31872 13.9064 6.91247Z" fill="white"/>
</mask>
<g mask="url(#mask3_6_30)">
<path d="M15.0001 15.6625L5.31262 8.16248L4.06262 7.22498L15.0001 4.09998V15.6625Z" fill="#4285F4"/>
</g>
</g>
<defs>
<clipPath id="clip0_6_30">
<rect width="15" height="15" fill="white" transform="translate(0.00012207 0.662476)"/>
</clipPath>
</defs>
</svg>
