<svg width="25" height="25" viewBox="0 0 65 65" fill="none" xmlns="http://www.w3.org/2000/svg">
<path d="M32.5 0C14.5464 0 0 14.5464 0 32.5C0 50.4536 14.5464 65 32.5 65C50.4536 65 65 50.4536 65 32.5C65 14.5464 50.4536 0 32.5 0ZM51.371 36.1694C51.371 37.0343 50.6633 37.7419 49.7984 37.7419H37.7419V49.7984C37.7419 50.6633 37.0343 51.371 36.1694 51.371H28.8306C27.9657 51.371 27.2581 50.6633 27.2581 49.7984V37.7419H15.2016C14.3367 37.7419 13.629 37.0343 13.629 36.1694V28.8306C13.629 27.9657 14.3367 27.2581 15.2016 27.2581H27.2581V15.2016C27.2581 14.3367 27.9657 13.629 28.8306 13.629H36.1694C37.0343 13.629 37.7419 14.3367 37.7419 15.2016V27.2581H49.7984C50.6633 27.2581 51.371 27.9657 51.371 28.8306V36.1694Z" fill="black"/>
</svg>
