<svg width="32" height="36" viewBox="0 0 32 36" fill="none" xmlns="http://www.w3.org/2000/svg">
<path d="M30.4186 2.63893H22.2155L21.5729 1.36061C21.4368 1.08732 21.2271 0.85743 20.9674 0.69681C20.7078 0.53619 20.4085 0.451209 20.1031 0.451428H12.2897C11.985 0.450257 11.6863 0.534921 11.4275 0.69572C11.1688 0.856518 10.9606 1.08695 10.8268 1.36061L10.1842 2.63893H1.98108C1.691 2.63893 1.4128 2.75416 1.20768 2.95928C1.00256 3.1644 0.887329 3.4426 0.887329 3.73268L0.887329 5.92018C0.887329 6.21026 1.00256 6.48846 1.20768 6.69358C1.4128 6.89869 1.691 7.01393 1.98108 7.01393H30.4186C30.7087 7.01393 30.9869 6.89869 31.192 6.69358C31.3971 6.48846 31.5123 6.21026 31.5123 5.92018V3.73268C31.5123 3.4426 31.3971 3.1644 31.192 2.95928C30.9869 2.75416 30.7087 2.63893 30.4186 2.63893ZM4.52405 32.3753C4.57621 33.2083 4.94388 33.9901 5.55221 34.5616C6.16054 35.1331 6.96379 35.4513 7.79846 35.4514H24.6012C25.4359 35.4513 26.2391 35.1331 26.8474 34.5616C27.4558 33.9901 27.8234 33.2083 27.8756 32.3753L29.3248 9.20143H3.07483L4.52405 32.3753Z" fill="#1A4265"/>
</svg>
