<svg width="40" height="40" viewBox="0 0 35 35" fill="none" xmlns="http://www.w3.org/2000/svg">
<path d="M29.5312 32.8125H5.46875C3.65723 32.8125 2.1875 31.3428 2.1875 29.5312V5.46875C2.1875 3.65723 3.65723 2.1875 5.46875 2.1875H29.5312C31.3428 2.1875 32.8125 3.65723 32.8125 5.46875V29.5312C32.8125 31.3428 31.3428 32.8125 29.5312 32.8125ZM18.4639 12.1611L9.1875 21.4375L8.75684 25.3408C8.70215 25.8604 9.13965 26.3047 9.66602 26.25L13.5693 25.8193L22.8457 16.543C23.0029 16.3857 23.0029 16.126 22.8457 15.9619L19.0518 12.168C18.8809 12.0039 18.6211 12.0039 18.4639 12.1611ZM25.7715 11.2861L23.7139 9.22852C23.0713 8.58594 22.0322 8.58594 21.3965 9.22852L19.8174 10.8076C19.6602 10.9648 19.6602 11.2246 19.8174 11.3887L23.6113 15.1826C23.7686 15.3398 24.0283 15.3398 24.1924 15.1826L25.7715 13.6035C26.4072 12.9678 26.4072 11.9287 25.7715 11.2861Z" fill="#1A4265"/>
</svg>
