<svg width="27" height="27" viewBox="0 0 27 27" fill="none" xmlns="http://www.w3.org/2000/svg">
<path d="M13.2029 6.93395C9.5139 6.93395 6.53833 9.91018 6.53833 13.6C6.53833 17.2899 9.5139 20.2661 13.2029 20.2661C16.8919 20.2661 19.8675 17.2899 19.8675 13.6C19.8675 9.91018 16.8919 6.93395 13.2029 6.93395ZM13.2029 17.9338C10.819 17.9338 8.87006 15.9903 8.87006 13.6C8.87006 11.2098 10.8132 9.2662 13.2029 9.2662C15.5927 9.2662 17.5358 11.2098 17.5358 13.6C17.5358 15.9903 15.5869 17.9338 13.2029 17.9338ZM21.6946 6.66127C21.6946 7.52572 20.9986 8.21611 20.1401 8.21611C19.2759 8.21611 18.5856 7.51991 18.5856 6.66127C18.5856 5.80263 19.2817 5.10644 20.1401 5.10644C20.9986 5.10644 21.6946 5.80263 21.6946 6.66127ZM26.1087 8.23932C26.0101 6.15653 25.5344 4.31161 24.0089 2.79159C22.4892 1.27156 20.6447 0.795826 18.5624 0.691397C16.4163 0.569563 9.98373 0.569563 7.8376 0.691397C5.76108 0.790025 3.91658 1.26576 2.39109 2.78578C0.865601 4.30581 0.395774 6.15073 0.291367 8.23351C0.16956 10.3801 0.16956 16.8141 0.291367 18.9607C0.389973 21.0435 0.865601 22.8884 2.39109 24.4085C3.91658 25.9285 5.75528 26.4042 7.8376 26.5086C9.98373 26.6305 16.4163 26.6305 18.5624 26.5086C20.6447 26.41 22.4892 25.9343 24.0089 24.4085C25.5286 22.8884 26.0043 21.0435 26.1087 18.9607C26.2305 16.8141 26.2305 10.3859 26.1087 8.23932ZM23.3361 21.264C22.8837 22.4011 22.0078 23.2771 20.8652 23.7355C19.1541 24.4143 15.0938 24.2576 13.2029 24.2576C11.312 24.2576 7.24597 24.4085 5.54067 23.7355C4.4038 23.2829 3.52795 22.4069 3.06973 21.264C2.39109 19.5525 2.5477 15.4914 2.5477 13.6C2.5477 11.7087 2.39689 7.64175 3.06973 5.93607C3.52215 4.79895 4.398 3.9229 5.54067 3.46458C7.25177 2.78578 11.312 2.94243 13.2029 2.94243C15.0938 2.94243 19.1599 2.79159 20.8652 3.46458C22.002 3.9171 22.8779 4.79315 23.3361 5.93607C24.0147 7.64755 23.8581 11.7087 23.8581 13.6C23.8581 15.4914 24.0147 19.5583 23.3361 21.264Z" fill="white"/>
</svg>
