<svg width="56" height="16" viewBox="0 0 56 16" fill="none" xmlns="http://www.w3.org/2000/svg">
<g id="Image" clip-path="url(#clip0_4_393)">
<g id="Group">
<path id="Vector" fill-rule="evenodd" clip-rule="evenodd" d="M7.251 4.1892C7.01122 5.71817 5.84228 5.71817 4.70331 5.71817H4.0559L4.51148 2.85209C4.52562 2.76842 4.56887 2.69245 4.63359 2.63759C4.69831 2.58273 4.78033 2.55251 4.86516 2.55229H5.16489C5.9322 2.55229 6.66353 2.55229 7.04119 2.99C7.26299 3.25382 7.33492 3.64955 7.251 4.1892ZM6.75345 0.171875H2.47333C2.33171 0.172884 2.19501 0.224017 2.08748 0.31621C1.97995 0.408402 1.90852 0.535701 1.88586 0.675539L0.147439 11.6602C0.140563 11.7113 0.144752 11.7633 0.159722 11.8127C0.174692 11.862 0.200092 11.9076 0.234203 11.9462C0.268313 11.9849 0.310336 12.0158 0.357423 12.0368C0.404509 12.0578 0.45556 12.0684 0.507113 12.0679H2.54527C2.68895 12.0698 2.82852 12.02 2.93855 11.9275C3.04857 11.8351 3.12174 11.7062 3.14472 11.5643L3.6123 8.60225C3.63622 8.46351 3.7082 8.33762 3.81561 8.24662C3.92302 8.15563 4.05901 8.10535 4.19977 8.10458H5.54255C8.35999 8.10458 9.99051 6.73749 10.4161 4.0273C10.608 2.84609 10.4221 1.91671 9.87062 1.26914C9.25918 0.543627 8.18016 0.171875 6.75945 0.171875M16.6924 8.12857C16.6122 8.67982 16.3333 9.18273 15.9083 9.54271C15.4832 9.90269 14.9413 10.0949 14.3845 10.0833C13.7851 10.0833 13.3055 9.89139 13.0058 9.53163C12.8497 9.33016 12.7398 9.09682 12.6838 8.84814C12.6279 8.59947 12.6273 8.34153 12.6821 8.09259C12.7594 7.53909 13.0358 7.03277 13.4595 6.66852C13.8833 6.30427 14.4253 6.10708 14.984 6.11391C15.5655 6.11391 16.039 6.31178 16.3507 6.67754C16.6625 7.04329 16.7824 7.55895 16.6984 8.12857M19.5518 4.13523H17.5017C17.4169 4.13546 17.3349 4.16567 17.2701 4.22053C17.2054 4.27539 17.1622 4.35137 17.148 4.43503L17.0581 5.01065L16.9142 4.80079C16.4706 4.15921 15.4815 3.94336 14.4924 3.94336C12.2265 3.94336 10.2962 5.65822 9.91858 8.06861C9.72076 9.26781 9.99651 10.419 10.6799 11.2165C11.3033 11.954 12.2025 12.2598 13.2576 12.2598C15.0919 12.2598 16.099 11.0846 16.099 11.0846L16.0091 11.6542C16.0004 11.7057 16.003 11.7585 16.0167 11.8089C16.0305 11.8593 16.055 11.9061 16.0887 11.946C16.1223 11.986 16.1643 12.0181 16.2116 12.0402C16.2589 12.0623 16.3105 12.0738 16.3627 12.0739H18.2091C18.3516 12.0727 18.489 12.0207 18.5966 11.9273C18.7043 11.8339 18.7752 11.7052 18.7965 11.5643L19.9055 4.54896C19.9142 4.49745 19.9116 4.44466 19.8979 4.39427C19.8841 4.34388 19.8596 4.29708 19.8259 4.25714C19.7922 4.2172 19.7503 4.18506 19.703 4.16298C19.6556 4.14089 19.6041 4.12937 19.5518 4.12924M30.4799 4.12924H28.4118C28.3146 4.13006 28.2191 4.15451 28.1335 4.20047C28.0479 4.24643 27.9747 4.31252 27.9203 4.39306L25.0788 8.58426L23.8799 4.56095C23.8425 4.43752 23.7663 4.32944 23.6627 4.25275C23.559 4.17606 23.4334 4.13485 23.3044 4.13523H21.2783C21.2217 4.13609 21.1662 4.15027 21.1162 4.17662C21.0661 4.20297 21.023 4.24076 20.9903 4.2869C20.9576 4.33304 20.9362 4.38625 20.9279 4.4422C20.9197 4.49815 20.9247 4.55527 20.9426 4.60892L23.2085 11.2645L21.0745 14.2805C21.0375 14.3343 21.0158 14.3972 21.0118 14.4624C21.0078 14.5276 21.0217 14.5927 21.0519 14.6506C21.0821 14.7086 21.1275 14.7572 21.1832 14.7913C21.2389 14.8254 21.3029 14.8436 21.3682 14.8441H23.4243C23.6222 14.8441 23.802 14.7482 23.9159 14.5923L30.7677 4.69886C30.8047 4.64502 30.8264 4.58212 30.8303 4.51691C30.8343 4.45169 30.8205 4.38662 30.7903 4.32868C30.7601 4.27075 30.7147 4.22213 30.659 4.18805C30.6032 4.15396 30.5393 4.13571 30.4739 4.13523" fill="#253B80"/>
<path id="Vector_2" fill-rule="evenodd" clip-rule="evenodd" d="M37.7933 4.18919C37.5535 5.71817 36.3846 5.71817 35.2456 5.71817H34.6042L35.0538 2.85209C35.0681 2.7674 35.1122 2.69062 35.1782 2.63564C35.2441 2.58065 35.3276 2.55109 35.4134 2.55229H35.7072C36.4745 2.55229 37.2058 2.55229 37.5835 2.98999C37.8113 3.25382 37.8772 3.64955 37.7933 4.18919ZM37.2957 0.171875H33.0156C32.874 0.172884 32.7373 0.224017 32.6298 0.31621C32.5222 0.408402 32.4508 0.535701 32.4281 0.675539L30.6957 11.6602C30.6889 11.7108 30.693 11.7623 30.7076 11.8112C30.7222 11.8601 30.7471 11.9054 30.7805 11.944C30.814 11.9825 30.8552 12.0135 30.9016 12.0349C30.948 12.0563 30.9983 12.0675 31.0494 12.0679H33.2434C33.3423 12.068 33.438 12.0331 33.5136 11.9695C33.5893 11.9059 33.6401 11.8176 33.657 11.7202L34.1486 8.60225C34.1725 8.46351 34.2445 8.33762 34.3519 8.24662C34.4593 8.15563 34.5953 8.10535 34.7361 8.10458H36.0908C38.9083 8.10458 40.5388 6.73749 40.9644 4.0273C41.1562 2.84609 40.9704 1.91671 40.4189 1.26914C39.8075 0.543627 38.7284 0.171875 37.3017 0.171875M47.2407 8.12857C47.1603 8.68086 46.8806 9.18461 46.4543 9.54473C46.028 9.90485 45.4846 10.0964 44.9268 10.0833C44.3274 10.0833 43.8478 9.89139 43.5481 9.53163C43.2483 9.17187 43.1284 8.66221 43.2244 8.09259C43.3016 7.53909 43.5781 7.03277 44.0018 6.66852C44.4256 6.30427 44.9676 6.10708 45.5263 6.11391C46.1077 6.11391 46.5813 6.31178 46.893 6.67753C47.2048 7.04329 47.3306 7.55895 47.2407 8.12857ZM50.0941 4.13523H48.05C47.9641 4.13403 47.8807 4.1636 47.8147 4.21858C47.7487 4.27357 47.7046 4.35034 47.6903 4.43503L47.6064 5.01065L47.4625 4.80079C47.0189 4.15921 46.0238 3.94336 45.0407 3.94336C42.7748 3.94336 40.8385 5.65821 40.4609 8.06861C40.269 9.26781 40.5448 10.419 41.2222 11.2165C41.8516 11.954 42.7448 12.2598 43.8058 12.2598C45.6342 12.2598 46.6473 11.0846 46.6473 11.0846L46.5573 11.6542C46.5487 11.7052 46.5512 11.7575 46.5646 11.8075C46.578 11.8574 46.602 11.9039 46.635 11.9438C46.668 11.9836 46.7092 12.0159 46.7558 12.0383C46.8024 12.0608 46.8533 12.0729 46.905 12.0739H48.7573C48.8988 12.0713 49.0348 12.0187 49.1412 11.9254C49.2476 11.8321 49.3176 11.7042 49.3388 11.5643L50.4478 4.54895C50.4565 4.49745 50.4539 4.44466 50.4402 4.39427C50.4264 4.34387 50.4018 4.29708 50.3682 4.25714C50.3345 4.2172 50.2926 4.18506 50.2452 4.16298C50.1979 4.14089 50.1464 4.12937 50.0941 4.12923" fill="#179BD7"/>
<g id="Group_2">
<g id="Mask group">
<mask id="mask0_4_393" style="mask-type:luminance" maskUnits="userSpaceOnUse" x="50" y="0" width="6" height="13">
<g id="Group_3">
<path id="Vector_3" d="M50.7535 0.171875H55.2015V12.0679H50.7535V0.171875Z" fill="white"/>
</g>
</mask>
<g mask="url(#mask0_4_393)">
<path id="Vector_4" fill-rule="evenodd" clip-rule="evenodd" d="M52.516 0.471725L50.7596 11.6543C50.7509 11.7053 50.7534 11.7576 50.7668 11.8075C50.7802 11.8575 50.8042 11.904 50.8372 11.9438C50.8702 11.9837 50.9114 12.0159 50.958 12.0384C51.0046 12.0608 51.0555 12.073 51.1072 12.074H52.8756C53.1694 12.074 53.4152 11.8581 53.4631 11.5643L55.2015 0.585649C55.2103 0.533641 55.2076 0.480335 55.1935 0.429507C55.1794 0.378679 55.1543 0.331573 55.12 0.291525C55.0857 0.251477 55.043 0.219467 54.9949 0.197762C54.9468 0.176058 54.8946 0.16519 54.8419 0.165929H52.8637C52.779 0.167797 52.6977 0.199493 52.6341 0.255432C52.5705 0.311372 52.5286 0.387967 52.516 0.471725Z" fill="#179BD7"/>
</g>
</g>
</g>
</g>
</g>
<defs>
<clipPath id="clip0_4_393">
<rect width="55.15" height="14.99" fill="white" transform="translate(0.147461 0.171875)"/>
</clipPath>
</defs>
</svg>
