<svg width="40" height="42" viewBox="0 0 40 42" fill="none" xmlns="http://www.w3.org/2000/svg">
<path id="Vector" d="M20.4023 23.625C26.458 23.625 31.3711 18.334 31.3711 11.8125C31.3711 5.29102 26.458 0 20.4023 0C14.3467 0 9.43359 5.29102 9.43359 11.8125C9.43359 18.334 14.3467 23.625 20.4023 23.625ZM30.1523 26.25H25.9553C24.2643 27.0867 22.3828 27.5625 20.4023 27.5625C18.4219 27.5625 16.548 27.0867 14.8494 26.25H10.6523C5.26699 26.25 0.902344 30.9504 0.902344 36.75V38.0625C0.902344 40.2363 2.54004 42 4.55859 42H36.2461C38.2646 42 39.9023 40.2363 39.9023 38.0625V36.75C39.9023 30.9504 35.5377 26.25 30.1523 26.25Z" fill="black"/>
</svg>
