<svg width="27" height="27" viewBox="0 0 27 27" fill="none" xmlns="http://www.w3.org/2000/svg">
<path d="M22.9058 4.37815C20.4741 1.94065 17.2357 0.600021 13.7942 0.600021C6.69061 0.600021 0.910256 6.38038 0.910256 13.4839C0.910256 15.7531 1.50222 17.9701 2.62811 19.9259L0.799988 26.6L7.63079 24.8067C9.51115 25.834 11.6295 26.3737 13.7884 26.3737H13.7942C20.892 26.3737 26.8 20.5933 26.8 13.4898C26.8 10.0482 25.3375 6.81565 22.9058 4.37815ZM13.7942 24.2031C11.8674 24.2031 9.98124 23.6866 8.33883 22.7116L7.94999 22.4795L3.89909 23.5415L4.97856 19.5893L4.7232 19.1831C3.64954 17.4768 3.0866 15.5094 3.0866 13.4839C3.0866 7.58172 7.89195 2.77636 13.8 2.77636C16.6611 2.77636 19.3482 3.89065 21.3678 5.91609C23.3875 7.94154 24.6295 10.6286 24.6236 13.4898C24.6236 19.3978 19.6964 24.2031 13.7942 24.2031ZM19.6674 16.1826C19.3482 16.0201 17.7638 15.2424 17.4678 15.138C17.1719 15.0277 16.9571 14.9755 16.7424 15.3005C16.5277 15.6255 15.9125 16.3451 15.721 16.5656C15.5353 16.7804 15.3437 16.8094 15.0245 16.6469C13.1326 15.7009 11.8906 14.9581 10.6428 12.8165C10.312 12.2478 10.9736 12.2884 11.5888 11.0581C11.6933 10.8433 11.6411 10.6576 11.5598 10.4951C11.4786 10.3326 10.8344 8.74824 10.5674 8.10404C10.3062 7.47725 10.0393 7.56431 9.84195 7.5527C9.65624 7.54109 9.44151 7.54109 9.22677 7.54109C9.01204 7.54109 8.66383 7.62234 8.36784 7.94154C8.07186 8.26654 7.24195 9.04422 7.24195 10.6286C7.24195 12.213 8.39686 13.7451 8.55356 13.9598C8.71606 14.1746 10.8228 17.4246 14.0553 18.8232C16.0982 19.7054 16.8991 19.7808 17.9205 19.6299C18.5415 19.5371 19.8241 18.8523 20.0911 18.0978C20.358 17.3433 20.358 16.6991 20.2768 16.5656C20.2013 16.4206 19.9866 16.3393 19.6674 16.1826Z" fill="white"/>
</svg>

