<svg width="26" height="24" viewBox="0 0 26 24" fill="none" xmlns="http://www.w3.org/2000/svg">
<path d="M22.8302 6.20742C22.8461 6.4535 22.8461 6.69964 22.8461 6.94572C22.8461 14.4515 17.6907 23.1 8.26801 23.1C5.36507 23.1 2.66838 22.1683 0.399963 20.5512C0.812416 20.6039 1.20895 20.6215 1.63727 20.6215C4.03255 20.6215 6.23754 19.725 7.99833 18.1957C5.74579 18.143 3.85808 16.5082 3.20769 14.2582C3.52498 14.3109 3.84221 14.3461 4.17537 14.3461C4.63538 14.3461 5.09544 14.2758 5.52371 14.1528C3.176 13.6254 1.41515 11.3402 1.41515 8.58048V8.51019C2.09724 8.93207 2.89045 9.19574 3.73113 9.23085C2.35105 8.2113 1.44689 6.47109 1.44689 4.50233C1.44689 3.44766 1.70065 2.48086 2.14484 1.6371C4.66707 5.08241 8.45835 7.33238 12.7096 7.57851C12.6303 7.15663 12.5827 6.71723 12.5827 6.27776C12.5827 3.14882 14.867 0.600021 17.7064 0.600021C19.1817 0.600021 20.5142 1.28557 21.4501 2.39299C22.6081 2.14691 23.7185 1.67227 24.702 1.0219C24.3213 2.34029 23.5123 3.44771 22.4495 4.15079C23.4806 4.0278 24.4799 3.71132 25.4 3.27192C24.7021 4.39687 23.8296 5.39878 22.8302 6.20742Z" fill="white"/>
</svg>
